<svg width="183" height="41" viewBox="0 0 183 41" fill="none" xmlns="http://www.w3.org/2000/svg">
<path d="M99.8858 13.1H103.96V24.3857C103.96 30.1143 100.79 33.4 95.266 33.4C89.7997 33.4 86.6576 30.1714 86.6576 24.5428V13.1143H90.7323V24.4143C90.7323 27.7571 92.3822 29.5428 95.3234 29.5428C98.2646 29.5428 99.8858 27.8 99.8858 24.5571V13.1ZM76.9301 21.1571H67.7192V13.1H63.6445V33.1H67.7192V24.9714H76.9158V33.1H80.9904V13.1H76.9158V21.1571H76.9301ZM178.968 13.1V33.0714H182.985V13.1H178.968ZM162.971 24.4857H170.389V20.8428H162.971V16.7428H173.731V13.1143H158.954V33.0857H174.119V29.4428H162.971V24.4857ZM146.988 26.8428L142.426 13.0857H139.097L134.535 26.8428L130.101 13.1H125.768L132.77 33.0857H136.142L140.704 19.9571L145.266 33.0857H148.667L155.654 13.1H151.421L146.988 26.8428ZM118.523 13.2143L127.289 33.0857H123.014L121.206 28.9286H112.009L111.88 29.2143L110.187 33.0857H106.026L114.879 13.1H118.437L118.523 13.2143ZM119.499 24.8428L116.6 18.1428L113.717 24.8428L113.516 25.3H119.685L119.499 24.8428Z" fill="white"/>
<path d="M23.5297 30.9714C23.5871 30.9286 23.6015 30.8429 23.5728 30.7714C19.6166 22.3047 14.6812 14.3269 8.86679 7C8.86679 7 4.24696 11.3714 4.57694 15.7571C4.65424 16.7683 4.93099 17.7543 5.39136 18.6588C5.85172 19.5633 6.48668 20.3686 7.25989 21.0286C11.2915 24.9429 21.0477 29.8857 23.3145 31.0143C23.3863 31.0429 23.4724 31.0286 23.5297 30.9714ZM22.0233 34.3143C21.9946 34.2286 21.9085 34.1714 21.8081 34.1714L5.56691 34.7286C7.33163 37.8571 10.3015 40.2857 13.3862 39.5429C15.5239 39.0143 20.3446 35.6571 21.9372 34.5143C22.0663 34.4143 22.0233 34.3286 22.0233 34.3143ZM22.2672 32.8714C22.3533 32.7429 22.2098 32.6286 22.2098 32.6286C15.0792 27.8286 1.24837 20.4571 1.24837 20.4571C0.78994 21.8562 0.661698 23.3417 0.873608 24.7982C1.08552 26.2546 1.63187 27.6428 2.47021 28.8548C3.30854 30.0669 4.41628 31.0701 5.70732 31.7865C6.99836 32.503 8.43793 32.9133 9.91415 32.9857C10.1581 33.0286 19.5699 32.9857 22.095 32.9714C22.1668 32.9571 22.2241 32.9286 22.2672 32.8714ZM23.3432 0.0142857C22.6402 0.0714286 20.732 0.514286 20.732 0.514286C16.4278 1.61429 15.4092 5.51429 15.4092 5.51429C14.6201 7.95714 15.4235 10.6571 15.4235 10.6571C16.8582 17 23.9171 27.4429 25.4379 29.6286C25.5384 29.7429 25.6245 29.7 25.6245 29.7C25.7105 29.6714 25.7823 29.6 25.7823 29.5C28.1352 6.18572 23.3432 0.0142857 23.3432 0.0142857ZM28.7235 29.6714C28.8096 29.7 28.91 29.6714 28.953 29.5857C30.5169 27.3429 37.5327 16.9571 38.9675 10.6429C38.9675 10.6429 39.7422 7.58571 38.9962 5.5C38.9962 5.5 37.9345 1.54286 33.6303 0.5C33.6303 0.5 32.3964 0.185714 31.0764 0C31.0764 0 26.2557 6.17143 28.6087 29.4857C28.5943 29.5714 28.6517 29.6429 28.7235 29.6714ZM32.5686 34.1857C32.5303 34.1934 32.4941 34.2088 32.462 34.2309C32.4299 34.253 32.4027 34.2814 32.382 34.3143C32.3677 34.4 32.382 34.4714 32.4394 34.5286C33.9889 35.6429 38.7092 38.9286 40.9761 39.5571C40.9761 39.5571 45.1798 40.9857 48.8241 34.7429L32.5686 34.1857ZM53.157 20.4286C53.157 20.4286 39.3548 27.8143 32.2099 32.6143C32.1381 32.6714 32.0951 32.7571 32.1238 32.8429C32.1238 32.8429 32.1955 32.9714 32.296 32.9714C34.8498 32.9714 44.5199 32.9857 44.7781 32.9429C45.7394 32.8714 46.6863 32.6571 47.5758 32.3C47.5758 32.3 51.0192 31.2143 52.7983 27.3143C52.7983 27.3143 54.3908 24.1429 53.157 20.4286ZM30.9043 30.9714C30.9617 31.0143 31.0477 31.0286 31.1195 30.9857C33.4437 29.8286 43.1282 24.9286 47.1311 21.0286C47.1311 21.0286 49.6706 19 49.7997 15.7286C50.0866 11.2 45.5098 7 45.5098 7C45.5098 7 37.0449 17.2143 30.8325 30.7143C30.8226 30.7597 30.8239 30.8069 30.8364 30.8517C30.8489 30.8965 30.8722 30.9376 30.9043 30.9714Z" fill="#CE0E2D"/>
</svg>
